<?xml version="1.0" standalone="no"?>
<!DOCTYPE svg PUBLIC "-//W3C//DTD SVG 20010904//EN"
 "http://www.w3.org/TR/2001/REC-SVG-20010904/DTD/svg10.dtd">
<svg version="1.0" xmlns="http://www.w3.org/2000/svg"
 width="500.000000pt" height="500.000000pt" viewBox="0 0 500.000000 500.000000"
 preserveAspectRatio="xMidYMid meet">

<g transform="translate(0.000000,500.000000) scale(0.100000,-0.100000)"
fill="#000000" stroke="none">
<path d="M1330 3171 c0 -5 12 -11 27 -13 61 -7 82 -90 83 -320 l0 -138 49 0
48 0 5 183 c5 212 17 254 76 272 17 5 32 13 32 17 0 4 -72 8 -160 8 -92 0
-160 -4 -160 -9z"/>
<path d="M2640 3170 c0 -5 10 -10 23 -10 35 0 66 -40 77 -99 5 -30 11 -124 12
-210 l2 -156 6 205 5 205 134 -202 133 -203 65 0 65 0 -23 38 c-13 20 -83 128
-157 240 l-134 202 -104 0 c-63 0 -104 -4 -104 -10z"/>
<path d="M3334 3171 c3 -4 18 -11 34 -14 82 -16 141 -142 167 -356 l13 -106 1
145 c2 231 23 311 84 318 15 2 27 8 27 13 0 5 -70 9 -166 9 -91 0 -163 -4
-160 -9z"/>
<path d="M1572 2528 l-2 -88 58 1 c41 0 51 3 37 9 -11 5 -34 9 -52 9 l-32 1
-4 78 -3 77 -2 -87z"/>
<path d="M2010 2525 c0 -51 4 -85 10 -85 6 0 8 11 4 25 -6 23 -4 25 29 25 26
0 39 -6 51 -25 9 -14 21 -25 27 -25 6 0 2 12 -9 27 -18 25 -18 27 0 45 43 43
6 98 -67 98 l-45 0 0 -85z m104 43 c18 -29 -4 -53 -53 -56 l-41 -3 0 41 0 41
41 -3 c27 -2 46 -9 53 -20z"/>
<path d="M2482 2530 c1 -75 2 -79 7 -33 4 28 9 55 13 58 3 3 27 -21 53 -54 27
-34 52 -61 56 -61 5 0 9 38 9 85 0 50 -4 85 -10 85 -6 0 -10 -29 -10 -67 l-1
-68 -32 40 c-18 22 -44 53 -59 70 l-27 30 1 -85z"/>
<path d="M2750 2525 l0 -85 61 0 c37 0 58 4 54 10 -3 6 -26 10 -51 10 -42 0
-44 1 -44 29 0 28 2 30 48 34 l47 3 -47 2 c-46 2 -48 3 -48 32 0 29 2 30 45
30 25 0 45 5 45 10 0 6 -25 10 -55 10 l-55 0 0 -85z"/>
<path d="M2973 2598 c2 -7 15 -46 28 -85 12 -40 28 -73 34 -73 6 0 22 33 35
73 l23 72 25 -73 c13 -40 29 -71 35 -69 13 4 59 136 54 157 -2 8 -14 -18 -27
-57 -13 -40 -26 -70 -29 -67 -3 3 -15 32 -26 65 -11 33 -25 61 -30 62 -6 1
-20 -27 -33 -63 -13 -35 -25 -66 -27 -68 -2 -2 -14 28 -26 67 -13 39 -27 71
-32 71 -5 0 -7 -6 -4 -12z"/>
<path d="M3336 2597 c-32 -24 -17 -59 34 -78 25 -9 46 -24 48 -32 5 -24 -30
-38 -67 -27 -31 9 -44 -3 -15 -14 46 -18 104 4 104 39 0 17 -35 41 -73 51 -21
5 -27 12 -25 28 3 18 10 21 46 21 43 0 54 8 26 19 -26 10 -59 7 -78 -7z"/>
<path d="M1803 2560 c-43 -17 -44 -85 -2 -109 26 -15 79 -9 79 9 0 6 -9 6 -22
1 -29 -11 -68 3 -68 24 0 11 12 15 50 15 56 0 65 15 30 50 -22 22 -33 23 -67
10z m65 -32 c3 -15 -4 -18 -37 -18 -29 0 -41 4 -41 14 0 30 73 33 78 4z"/>
<path d="M2265 2545 c-30 -29 -32 -58 -4 -86 22 -22 79 -23 87 -1 3 9 -2 10
-20 4 -25 -10 -49 -5 -60 12 -15 22 -7 26 42 26 43 0 50 3 50 19 0 21 -35 51
-58 51 -7 0 -24 -11 -37 -25z m75 -15 c10 -19 8 -20 -35 -20 -46 0 -54 7 -33
28 19 19 56 14 68 -8z"/>
<path d="M1440 2263 c0 -136 -14 -230 -38 -262 -10 -13 -34 -30 -53 -37 -28
-10 43 -13 409 -13 l442 -1 -1 103 c0 84 -2 97 -11 72 -36 -104 -175 -152
-475 -162 l-173 -6 0 206 0 207 -50 0 -50 0 0 -107z"/>
<path d="M2748 2212 c-5 -184 -16 -220 -76 -245 -35 -14 -29 -15 133 -15 142
0 165 1 137 11 -46 17 -92 64 -119 124 -27 59 -53 169 -53 230 0 23 -4 44 -9
47 -5 3 -11 -65 -13 -152z"/>
<path d="M3287 2312 c167 -258 249 -381 256 -382 4 0 6 100 5 223 -1 135 -4
174 -5 99 l-4 -123 -79 121 -80 120 -65 0 -65 0 37 -58z"/>
</g>
</svg>
